<?xml version="1.0" standalone="no"?>
<!DOCTYPE svg PUBLIC "-//W3C//DTD SVG 20010904//EN"
 "http://www.w3.org/TR/2001/REC-SVG-20010904/DTD/svg10.dtd">
<svg version="1.0" xmlns="http://www.w3.org/2000/svg"
 width="123.000000pt" height="123.000000pt" viewBox="0 0 123.000000 123.000000"
 preserveAspectRatio="xMidYMid meet">
<metadata>
Created by potrace 1.14, written by Peter Selinger 2001-2017
</metadata>
<g transform="translate(0.000000,123.000000) scale(0.100000,-0.100000)"
fill="#000000" stroke="none">
<path d="M337 1215 c-10 -10 -17 -32 -17 -56 l0 -39 -67 -1 c-115 -1 -154 -16
-200 -76 l-28 -36 -3 -421 c-2 -232 0 -436 3 -454 8 -45 68 -109 113 -122 23
-6 211 -10 480 -10 378 0 448 2 480 16 51 21 90 61 102 103 6 21 10 207 10
447 0 441 -1 455 -52 500 -48 44 -79 52 -215 54 -32 0 -33 2 -33 39 0 89 -108
97 -114 8 -2 -20 -5 -40 -8 -43 -7 -7 -339 -7 -346 1 -3 3 -6 21 -8 41 -3 43
-10 52 -50 60 -22 4 -36 1 -47 -11z m-19 -250 c3 -47 20 -67 57 -67 35 0 59
24 61 64 1 18 2 36 3 39 2 11 351 6 352 -5 0 -6 2 -24 3 -40 2 -36 37 -65 70
-59 34 7 44 21 48 68 l3 40 74 -1 c96 -1 101 -8 101 -129 l0 -92 -475 -1 -475
0 0 92 c0 125 9 135 115 132 l60 -1 3 -40z m772 -560 c0 -263 0 -265 -22 -279
-34 -21 -872 -21 -905 0 -23 14 -23 16 -23 279 l0 265 475 0 475 0 0 -265z"/>
</g>
</svg>
